<mxfile host="app.diagrams.net" agent="Mozilla/5.0 (Windows NT 10.0; Win64; x64) AppleWebKit/537.36 (KHTML, like Gecko) Chrome/128.0.0.0 Safari/537.36" version="24.7.16">
  <diagram name="Strona-1" id="J24gfGAH-1uFBQOjHUU1">
    <mxGraphModel dx="574" dy="295" grid="1" gridSize="10" guides="1" tooltips="1" connect="1" arrows="1" fold="1" page="1" pageScale="1" pageWidth="827" pageHeight="1169" math="0" shadow="0">
      <root>
        <mxCell id="0" />
        <mxCell id="1" parent="0" />
        <mxCell id="NVnBdtR7ZTR1H0qItUt8-29" style="edgeStyle=orthogonalEdgeStyle;rounded=0;orthogonalLoop=1;jettySize=auto;html=1;exitX=1;exitY=0.5;exitDx=0;exitDy=0;entryX=0;entryY=0.5;entryDx=0;entryDy=0;" edge="1" parent="1" source="NVnBdtR7ZTR1H0qItUt8-1" target="NVnBdtR7ZTR1H0qItUt8-2">
          <mxGeometry relative="1" as="geometry" />
        </mxCell>
        <mxCell id="NVnBdtR7ZTR1H0qItUt8-1" value="&lt;font style=&quot;font-size: 8px;&quot;&gt;Naważanie&lt;/font&gt;" style="rounded=0;whiteSpace=wrap;html=1;" vertex="1" parent="1">
          <mxGeometry y="120" width="80" height="40" as="geometry" />
        </mxCell>
        <mxCell id="NVnBdtR7ZTR1H0qItUt8-28" style="edgeStyle=orthogonalEdgeStyle;rounded=0;orthogonalLoop=1;jettySize=auto;html=1;exitX=1;exitY=0.5;exitDx=0;exitDy=0;entryX=0;entryY=0.5;entryDx=0;entryDy=0;" edge="1" parent="1" source="NVnBdtR7ZTR1H0qItUt8-2" target="NVnBdtR7ZTR1H0qItUt8-3">
          <mxGeometry relative="1" as="geometry" />
        </mxCell>
        <mxCell id="NVnBdtR7ZTR1H0qItUt8-2" value="&lt;font style=&quot;font-size: 8px;&quot;&gt;Przesiewanie&lt;/font&gt;" style="rounded=0;whiteSpace=wrap;html=1;" vertex="1" parent="1">
          <mxGeometry x="120" y="120" width="80" height="40" as="geometry" />
        </mxCell>
        <mxCell id="NVnBdtR7ZTR1H0qItUt8-27" style="edgeStyle=orthogonalEdgeStyle;rounded=0;orthogonalLoop=1;jettySize=auto;html=1;exitX=1;exitY=0.5;exitDx=0;exitDy=0;entryX=0;entryY=0.5;entryDx=0;entryDy=0;" edge="1" parent="1" source="NVnBdtR7ZTR1H0qItUt8-3" target="NVnBdtR7ZTR1H0qItUt8-4">
          <mxGeometry relative="1" as="geometry" />
        </mxCell>
        <mxCell id="NVnBdtR7ZTR1H0qItUt8-3" value="&lt;font style=&quot;font-size: 8px;&quot;&gt;Przygotowanie kleiku&lt;/font&gt;" style="rounded=0;whiteSpace=wrap;html=1;" vertex="1" parent="1">
          <mxGeometry x="240" y="120" width="80" height="40" as="geometry" />
        </mxCell>
        <mxCell id="NVnBdtR7ZTR1H0qItUt8-4" value="&lt;font style=&quot;font-size: 8px;&quot;&gt;Granulacja mokra&lt;/font&gt;" style="rounded=0;whiteSpace=wrap;html=1;" vertex="1" parent="1">
          <mxGeometry x="360" y="120" width="80" height="40" as="geometry" />
        </mxCell>
        <mxCell id="NVnBdtR7ZTR1H0qItUt8-23" style="edgeStyle=orthogonalEdgeStyle;rounded=0;orthogonalLoop=1;jettySize=auto;html=1;exitX=1;exitY=0.5;exitDx=0;exitDy=0;entryX=0;entryY=0;entryDx=0;entryDy=0;" edge="1" parent="1" source="NVnBdtR7ZTR1H0qItUt8-5" target="NVnBdtR7ZTR1H0qItUt8-18">
          <mxGeometry relative="1" as="geometry" />
        </mxCell>
        <mxCell id="NVnBdtR7ZTR1H0qItUt8-5" value="&lt;font style=&quot;font-size: 8px;&quot;&gt;Mieszanie wstępne&lt;/font&gt;" style="rounded=0;whiteSpace=wrap;html=1;" vertex="1" parent="1">
          <mxGeometry x="490" y="10" width="80" height="40" as="geometry" />
        </mxCell>
        <mxCell id="NVnBdtR7ZTR1H0qItUt8-24" style="edgeStyle=orthogonalEdgeStyle;rounded=0;orthogonalLoop=1;jettySize=auto;html=1;exitX=1;exitY=0.5;exitDx=0;exitDy=0;entryX=0;entryY=0.25;entryDx=0;entryDy=0;" edge="1" parent="1" source="NVnBdtR7ZTR1H0qItUt8-6" target="NVnBdtR7ZTR1H0qItUt8-18">
          <mxGeometry relative="1" as="geometry" />
        </mxCell>
        <mxCell id="NVnBdtR7ZTR1H0qItUt8-6" value="&lt;font style=&quot;font-size: 8px;&quot;&gt;Granulacja&lt;/font&gt;" style="rounded=0;whiteSpace=wrap;html=1;" vertex="1" parent="1">
          <mxGeometry x="490" y="80" width="80" height="40" as="geometry" />
        </mxCell>
        <mxCell id="NVnBdtR7ZTR1H0qItUt8-25" style="edgeStyle=orthogonalEdgeStyle;rounded=0;orthogonalLoop=1;jettySize=auto;html=1;exitX=1;exitY=0.5;exitDx=0;exitDy=0;entryX=0;entryY=0.75;entryDx=0;entryDy=0;" edge="1" parent="1" source="NVnBdtR7ZTR1H0qItUt8-7" target="NVnBdtR7ZTR1H0qItUt8-18">
          <mxGeometry relative="1" as="geometry" />
        </mxCell>
        <mxCell id="NVnBdtR7ZTR1H0qItUt8-7" value="&lt;font style=&quot;font-size: 8px;&quot;&gt;Granulacja właściwa&lt;/font&gt;" style="rounded=0;whiteSpace=wrap;html=1;" vertex="1" parent="1">
          <mxGeometry x="490" y="160" width="80" height="40" as="geometry" />
        </mxCell>
        <mxCell id="NVnBdtR7ZTR1H0qItUt8-10" value="" style="strokeWidth=2;html=1;shape=mxgraph.flowchart.annotation_2;align=left;labelPosition=right;pointerEvents=1;" vertex="1" parent="1">
          <mxGeometry x="440" y="30" width="50" height="220" as="geometry" />
        </mxCell>
        <mxCell id="NVnBdtR7ZTR1H0qItUt8-26" style="edgeStyle=orthogonalEdgeStyle;rounded=0;orthogonalLoop=1;jettySize=auto;html=1;exitX=1;exitY=0.5;exitDx=0;exitDy=0;entryX=0;entryY=1;entryDx=0;entryDy=0;" edge="1" parent="1" source="NVnBdtR7ZTR1H0qItUt8-12" target="NVnBdtR7ZTR1H0qItUt8-18">
          <mxGeometry relative="1" as="geometry" />
        </mxCell>
        <mxCell id="NVnBdtR7ZTR1H0qItUt8-12" value="&lt;font style=&quot;font-size: 8px;&quot;&gt;Mielenie na mokro&lt;/font&gt;" style="rounded=0;whiteSpace=wrap;html=1;" vertex="1" parent="1">
          <mxGeometry x="490" y="230" width="80" height="40" as="geometry" />
        </mxCell>
        <mxCell id="NVnBdtR7ZTR1H0qItUt8-16" value="" style="line;strokeWidth=2;html=1;" vertex="1" parent="1">
          <mxGeometry x="464" y="95" width="26" height="10" as="geometry" />
        </mxCell>
        <mxCell id="NVnBdtR7ZTR1H0qItUt8-17" value="" style="line;strokeWidth=2;html=1;" vertex="1" parent="1">
          <mxGeometry x="464" y="175" width="26" height="10" as="geometry" />
        </mxCell>
        <mxCell id="NVnBdtR7ZTR1H0qItUt8-30" style="edgeStyle=orthogonalEdgeStyle;rounded=0;orthogonalLoop=1;jettySize=auto;html=1;exitX=1;exitY=0.5;exitDx=0;exitDy=0;entryX=0;entryY=0.5;entryDx=0;entryDy=0;" edge="1" parent="1" source="NVnBdtR7ZTR1H0qItUt8-18" target="NVnBdtR7ZTR1H0qItUt8-19">
          <mxGeometry relative="1" as="geometry" />
        </mxCell>
        <mxCell id="NVnBdtR7ZTR1H0qItUt8-18" value="&lt;font style=&quot;font-size: 8px;&quot;&gt;Suszenie i mielenie granulatu&lt;/font&gt;" style="rounded=0;whiteSpace=wrap;html=1;" vertex="1" parent="1">
          <mxGeometry x="600" y="120" width="80" height="40" as="geometry" />
        </mxCell>
        <mxCell id="NVnBdtR7ZTR1H0qItUt8-32" style="edgeStyle=orthogonalEdgeStyle;rounded=0;orthogonalLoop=1;jettySize=auto;html=1;exitX=1;exitY=0.5;exitDx=0;exitDy=0;entryX=0;entryY=0.5;entryDx=0;entryDy=0;" edge="1" parent="1" source="NVnBdtR7ZTR1H0qItUt8-19" target="NVnBdtR7ZTR1H0qItUt8-20">
          <mxGeometry relative="1" as="geometry" />
        </mxCell>
        <mxCell id="NVnBdtR7ZTR1H0qItUt8-19" value="&lt;font style=&quot;font-size: 8px;&quot;&gt;Homogenizacja&lt;/font&gt;" style="rounded=0;whiteSpace=wrap;html=1;" vertex="1" parent="1">
          <mxGeometry x="720" y="120" width="80" height="40" as="geometry" />
        </mxCell>
        <mxCell id="NVnBdtR7ZTR1H0qItUt8-20" value="&lt;font style=&quot;font-size: 8px;&quot;&gt;Tabletkowanie&lt;/font&gt;" style="rounded=0;whiteSpace=wrap;html=1;" vertex="1" parent="1">
          <mxGeometry x="840" y="120" width="80" height="40" as="geometry" />
        </mxCell>
      </root>
    </mxGraphModel>
  </diagram>
</mxfile>
